<?xml version="1.0" encoding="UTF-8" standalone="no"?>
<svg
   xmlns:dc="http://purl.org/dc/elements/1.1/"
   xmlns:cc="http://creativecommons.org/ns#"
   xmlns:rdf="http://www.w3.org/1999/02/22-rdf-syntax-ns#"
   xmlns:svg="http://www.w3.org/2000/svg"
   xmlns="http://www.w3.org/2000/svg"
   xmlns:sodipodi="http://sodipodi.sourceforge.net/DTD/sodipodi-0.dtd"
   xmlns:inkscape="http://www.inkscape.org/namespaces/inkscape"
   width="220"
   height="100"
   version="1.1"
   id="svg24"
   sodipodi:docname="logo-stencil-bw.svg"
   inkscape:version="1.0.1 (3bc2e813f5, 2020-09-07)">
  <metadata
     id="metadata30">
    <rdf:RDF>
      <cc:Work
         rdf:about="">
        <dc:format>image/svg+xml</dc:format>
        <dc:type
           rdf:resource="http://purl.org/dc/dcmitype/StillImage" />
      </cc:Work>
    </rdf:RDF>
  </metadata>
  <defs
     id="defs28" />
  <sodipodi:namedview
     pagecolor="#ffffff"
     bordercolor="#666666"
     borderopacity="1"
     objecttolerance="10"
     gridtolerance="10"
     guidetolerance="10"
     inkscape:pageopacity="0"
     inkscape:pageshadow="2"
     inkscape:window-width="640"
     inkscape:window-height="480"
     id="namedview26"
     showgrid="false"
     inkscape:current-layer="svg24"
     inkscape:document-rotation="0" />
  <text
     xml:space="preserve"
     style="font-style:normal;font-variant:normal;font-weight:bold;font-stretch:normal;font-size:27.2584px;line-height:1.25;font-family:'Varela Round';-inkscape-font-specification:'Varela Round, Bold';font-variant-ligatures:normal;font-variant-caps:normal;font-variant-numeric:normal;font-variant-east-asian:normal;text-align:center;letter-spacing:0px;word-spacing:0px;text-anchor:middle;fill:#ffffff;stroke-width:0.330251"
     x="143.76566"
     y="51.207592"
     id="text2867"><tspan
       sodipodi:role="line"
       id="tspan2865"
       x="143.76566"
       y="51.207592"
       style="font-style:normal;font-variant:normal;font-weight:bold;font-stretch:normal;font-size:27.2584px;font-family:'Varela Round';-inkscape-font-specification:'Varela Round, Bold';font-variant-ligatures:normal;font-variant-caps:normal;font-variant-numeric:normal;font-variant-east-asian:normal;fill:#ffffff;stroke-width:0.330251">Badminton</tspan></text>
  <text
     xml:space="preserve"
     style="font-style:normal;font-variant:normal;font-weight:bold;font-stretch:normal;font-size:14.8249px;line-height:1.25;font-family:'Varela Round';-inkscape-font-specification:'Varela Round, Bold';font-variant-ligatures:normal;font-variant-caps:normal;font-variant-numeric:normal;font-variant-east-asian:normal;text-align:center;letter-spacing:0px;word-spacing:0px;text-anchor:middle;fill:#ffffff;stroke-width:0.179612"
     x="142.87978"
     y="67.941002"
     id="text2871"><tspan
       sodipodi:role="line"
       id="tspan2869"
       x="148.35318"
       y="67.941002"
       style="font-style:normal;font-variant:normal;font-weight:bold;font-stretch:normal;font-size:14.8249px;font-family:'Varela Round';-inkscape-font-specification:'Varela Round, Bold';font-variant-ligatures:normal;font-variant-caps:normal;font-variant-numeric:normal;font-variant-east-asian:normal;letter-spacing:10.9468px;fill:#ffffff;stroke-width:0.179612">U MUZEA</tspan></text>
  <g
     id="g2883"
     transform="matrix(0.68242636,0,0,0.68242636,-96.095696,-236.25537)">
    <path
       id="rect2873"
       style="fill:#ffffff;fill-opacity:1;stroke-width:60;stroke-linecap:round;stroke-linejoin:round;stop-color:#000000"
       d="m 252.66602,666.96289 c -2.09413,0 -4.18835,0.80163 -5.79297,2.40625 l -44.98243,44.98438 c -3.20924,3.20924 -3.20925,8.37472 0,11.58398 l 44.98243,44.98438 c 3.20925,3.20925 8.37669,3.20924 11.58593,0 l 44.98243,-44.98438 c 3.20924,-3.20925 3.20925,-8.37473 0,-11.58398 l -44.98243,-44.98438 c -1.60462,-1.60463 -3.69884,-2.40625 -5.79296,-2.40625 z m -18.38477,27.56055 38.18555,15.80273 v 5.32617 c -10.10164,-1.4124 -21.09386,-4.84546 -29.95118,-3.40625 -5.96722,-3.60369 -6.55188,-11.44351 -8.23437,-17.72265 z m 41.98828,17.0664 c 3.07628,0 5.9189,1.64056 7.45703,4.30469 1.53814,2.66413 1.53814,5.9472 0,8.61133 -1.53813,2.66413 -4.38075,4.30469 -7.45703,4.30469 z m -26.70508,1.11719 c 7.75752,0.17291 16.09353,2.22456 22.90235,3.45117 v 8.45118 c -14.04552,2.17874 -31.75827,6.48782 -42.33008,-4.08399 4.49125,-6.28524 11.67021,-7.99127 19.42773,-7.81836 z m 22.90235,12.28711 v 5.32617 l -37.84766,15.47071 c 1.68249,-6.27915 1.92926,-13.78498 7.89648,-17.38868 8.85734,1.43922 19.84954,-1.9958 29.95118,-3.4082 z"
       transform="matrix(0.75000001,0,0,0.75000001,6.506836,-120.29378)" />
  </g>
</svg>
